<svg xmlns="http://www.w3.org/2000/svg" viewBox="0 0 12 12"><g fill="#82ca9d"><path d="M9,4H8.5V3c0-1.4-1.1-2.5-2.5-2.5S3.5,1.6,3.5,3v1H3C2.5,4,2,4.4,2,5v5c0,0.6,0.5,1,1,1h6c0.6,0,1-0.4,1-1V5    C10,4.4,9.6,4,9,4z M6,8.5c-0.6,0-1-0.4-1-1s0.4-1,1-1s1,0.4,1,1S6.6,8.5,6,8.5z M4.5,4V3c0-0.8,0.7-1.5,1.5-1.5S7.5,2.2,7.5,3v1    H4.5z"/><path d="M4.5 6h3v2.8h-3z"/></g><path d="M8.3 5.6c.2.2.2.5 0 .7L5.7 9.1c-.2.2-.5.2-.7 0L3.6 7.7c-.2-.2-.2-.5 0-.7s.5-.2.6 0l1.1 1.1 2.3-2.5c.3-.1.6-.1.7 0z" fill="#fff"/></svg>